<svg xmlns="http://www.w3.org/2000/svg" viewBox="0 0 98 25"><title>Solidabis_logo_cmyk</title><desc>Created with Sketch.</desc><g id="Page-1" stroke="none" stroke-width="1" fill="currentColor" fill-rule="evenodd"><g id="Email" transform="translate(-21.000000, -17.000000)" fill="currentColor" fill-rule="nonzero"><g id="Solidabis_logo_cmyk" transform="translate(21.000000, 17.000000)"><path d="M5.11145153,8.71774903 C4.52700565,8.5638624 3.98312068,8.33100763 3.47979662,8.02120955 C3.11659209,7.84504985 2.74416916,7.60207096 2.36068416,7.29024805 C1.97719917,6.98044997 1.61952566,6.6382547 1.28766365,6.26163742 C0.955801635,5.88502014 0.671875244,5.49220427 0.441415512,5.0831898 C0.209112102,4.67417534 0.07267994,4.26921052 0.0321190271,3.87032018 C-0.0287223422,3.45118159 -0.00291085219,3.0563409 0.107709819,2.69187256 C0.218330491,2.32740422 0.380574143,1.98318413 0.590753418,1.66326193 C0.802776372,1.34333972 1.04429817,1.06593882 1.31531882,0.833084051 C1.58818314,0.600229281 1.86473482,0.405846169 2.14681753,0.251959539 C2.30721751,0.164892103 2.47867955,0.0980729083 2.66120365,0.0535267784 C2.84188408,0.00898064856 3.00965877,-0.00721794411 3.16084035,0.00290617631 C3.31202194,0.0150551208 3.431861,0.0697253711 3.52220121,0.168941751 C3.61254143,0.268158131 3.65863338,0.405846169 3.65863338,0.584030688 C3.61807246,1.02746716 3.57198052,1.4425561 3.52220121,1.8292975 C3.47242191,2.21806372 3.47795295,2.64327678 3.53695064,3.1069615 C3.55723109,3.68201154 3.75819198,4.29148359 4.14167698,4.93335282 C4.38319878,5.26542397 4.69662401,5.53067593 5.07826533,5.73113351 C5.2386653,5.11153734 5.45990664,4.50206529 5.74383304,3.90474219 C6.06647666,3.28514602 6.45364901,2.75869175 6.90719376,2.32740422 C7.36073852,1.89611669 7.84378212,1.54784695 8.35816824,1.282595 C8.87255436,1.01734304 9.39615887,0.829034403 9.93082545,0.717669078 C10.4636484,0.606303753 10.9927839,0.584030688 11.5182321,0.650849883 C12.1229584,0.717669078 12.6871239,0.883704653 13.2107284,1.14895661 C13.7343329,1.41420856 14.1528478,1.75842866 14.4644293,2.17756724 C14.7760109,2.59873065 14.9530039,3.09683738 14.9935649,3.67188742 C15.0341258,4.24693746 14.8829442,4.87868257 14.5400201,5.56509794 C14.1159742,6.38312687 13.5075605,7.08776565 12.7110917,7.67293981 C11.9146228,8.26013879 10.9024437,8.67522773 9.67271055,8.91820662 C9.57130827,8.94047968 9.47174967,8.95667828 9.37034738,8.96882722 C9.2689451,8.98097617 9.1693865,8.99717476 9.06798422,9.01944782 C9.28922556,9.37379204 9.51784161,9.71598731 9.74830135,10.0480585 C9.98060476,10.3801296 10.2073771,10.7020766 10.4286185,11.0118747 C10.7512621,11.4775843 11.0941862,11.9534179 11.4573907,12.4393757 C11.8205953,12.9273583 12.1469262,13.4517877 12.440071,14.0167137 C12.7313721,14.5816396 12.9581445,15.2073102 13.1203882,15.8917008 C13.2807881,16.5781161 13.3324111,17.3414748 13.2715697,18.1817768 C13.1701675,19.2873308 12.9083652,20.2794946 12.486163,21.1521937 C12.0621171,22.0269177 11.5200758,22.7619289 10.8545081,23.359252 C10.1889404,23.9565751 9.43303243,24.4000116 8.58678429,24.6875366 C7.74053616,24.9750616 6.85372711,25.0641539 5.92635714,24.9548134 C4.83858721,24.821175 3.87618736,24.4445577 3.03915762,23.8249615 C2.20212787,23.2053654 1.58265211,22.4197336 1.18073033,21.4680663 C1.01848668,21.0691759 0.904178655,20.6156154 0.832275218,20.1073845 C0.762215459,19.5991537 0.747466037,19.0787739 0.788026949,18.5462451 C0.828587862,18.0157412 0.928146467,17.5054856 1.09039012,17.0195278 C1.25079009,16.53357 1.4830935,16.1225307 1.78545667,15.7924844 C2.14866121,15.4158671 2.57639447,15.2113599 3.07050014,15.1769379 C3.56460581,15.1445407 4.03843102,15.209335 4.49197577,15.3773954 C4.94552052,15.543431 5.33269287,15.7702113 5.6553365,16.0577363 C5.97798012,16.3452614 6.14022377,16.6226623 6.14022377,16.8879142 C6.14022377,17.1308931 6.03882149,17.3475493 5.83786061,17.5358579 C5.63689972,17.7241666 5.42487677,17.9630958 5.20179174,18.2506208 C4.93998949,18.604965 4.7722148,19.020054 4.70215504,19.4958876 C4.63209529,19.9717213 4.65237574,20.4151578 4.76299641,20.8241722 C4.87361709,21.2331867 5.08010901,21.5774068 5.38247217,21.8527829 C5.68483534,22.1301838 6.07753873,22.2455987 6.56058233,22.2010526 C6.8629455,22.1787795 7.1708397,22.0896873 7.48242126,21.9358007 C7.79400281,21.781914 8.08161656,21.5652578 8.34341882,21.2878569 C8.60522107,21.0124809 8.83199345,20.6783849 9.02373595,20.2916435 C9.21547844,19.9049021 9.32978647,19.4553912 9.37034738,18.9471603 C9.4109083,18.4814508 9.37587842,18.0177661 9.26525775,17.5520565 C9.15463707,17.086347 8.99792446,16.6287367 8.79696357,16.1731513 C8.59600268,15.7195907 8.35816824,15.2721046 8.08714759,14.8286681 C7.81612695,14.3872565 7.53773159,13.9539441 7.25564888,13.5348055 C6.81132252,12.8483902 6.38912029,12.1012301 5.98535483,11.2933253 C5.58527674,10.4833956 5.29213196,9.62487022 5.11145153,8.71774903 Z M11.5809171,2.57645759 C11.0978735,2.4428192 10.6480161,2.47724121 10.2350323,2.67567397 C9.82204846,2.87410673 9.46437496,3.16365657 9.16201179,3.53824903 C8.85964862,3.91486631 8.62734521,4.35830278 8.46694523,4.86653363 C8.30470158,5.37476447 8.24386021,5.8728712 8.28442113,6.3608538 C8.84858655,6.38312687 9.36850371,6.31630767 9.84232892,6.16242104 C10.3161541,6.00853441 10.7236069,5.82022577 11.066531,5.59749512 C11.4094551,5.3767893 11.6970688,5.13178558 11.9293723,4.86653363 C12.159832,4.59925685 12.3165446,4.35627796 12.3976664,4.13557213 C12.5175055,3.78122792 12.5138181,3.46130571 12.3810733,3.17378069 C12.2501722,2.88625567 11.9828389,2.68782291 11.5809171,2.57645759 Z" id="Shape"></path><g id="Group" transform="translate(15.000000, 1.000000)"><path d="M22.1486298,8.59438017 C22.4419231,8.75702479 22.7491827,8.84429752 23.0644231,8.85421488 C23.3796635,8.8661157 23.6370433,8.78479339 23.8345673,8.61024793 L26.0592067,5.61719008 C26.1888942,5.35735537 26.1849038,5.07966942 26.0432452,4.78809917 C25.9015865,4.49652893 25.6821154,4.23471074 25.3888221,4.00661157 C25.0955288,3.7785124 24.7623317,3.6 24.391226,3.46909091 C24.0201202,3.34016529 23.6709615,3.2846281 23.34375,3.30644628 C23.1482212,3.32826446 22.9846154,3.37190083 22.8529327,3.4353719 C22.72125,3.50082645 22.5915625,3.59801653 22.4598798,3.72892562 C22.3501442,3.87966942 22.2424038,4.08595041 22.1326683,4.34578512 C22.0229327,4.60561983 21.9191827,4.88330579 21.8214183,5.17487603 C21.7236538,5.46644628 21.6358654,5.76 21.5600481,6.05355372 C21.4822356,6.34512397 21.4124038,6.60099174 21.3465625,6.81719008 C21.2368269,7.22975207 21.2707452,7.58677686 21.4443269,7.89024793 C21.6199038,8.19966942 21.8533413,8.43173554 22.1486298,8.59438017 Z" id="Path"></path><path d="M82.2917067,7.44 C81.7889183,6.63867769 81.0945913,6.04165289 80.2147115,5.63504132 C79.3926923,5.25421488 78.4469712,5.00231405 76.836851,5.07768595 C74.3628125,5.19272727 72.4833413,6.73785124 68.9957452,6.67041322 C66.9466827,6.6307438 68.0041346,4.68495868 68.0979087,4.36561983 C68.3333413,3.56033058 67.5232933,3.11603306 66.7990385,3.07438017 C65.8612981,3.05256198 64.7978606,3.11603306 64.3010577,4.72066116 C64.159399,5.18082645 63.8381731,7.14049587 65.2447837,8.11438017 C66.1565865,8.74710744 67.012524,8.74710744 67.9821875,8.75305785 C70.8672356,8.77090909 72.5910817,6.70016529 77.4793029,6.70016529 C79.3527885,6.70016529 81.3020913,7.98743802 81.44375,9.96297521 C81.495625,10.6889256 81.3838942,11.4803306 81.1344952,12.3371901 C80.883101,13.1940496 80.5159856,14.0826446 80.0371394,15.0049587 C79.5582933,15.9272727 79.0175962,16.8 78.4190385,17.6231405 C77.8184856,18.4482645 77.1820192,19.1841322 76.505649,19.8347107 C75.8292788,20.4852893 75.1868269,20.9732231 74.5762981,21.2985124 C74.6201923,21.1477686 74.6461298,20.9633058 74.658101,20.745124 C74.6700721,20.5289256 74.6521154,20.3781818 74.6521154,20.3147107 C74.586274,19.8604959 74.4585817,19.3626446 74.2191587,18.8112397 C73.9777404,18.2578512 73.7283413,17.6826446 73.464976,17.0876033 C73.2036058,16.492562 72.9741587,15.8995041 72.7786298,15.3163636 C72.583101,14.7312397 72.4853365,14.1778512 72.4853365,13.6581818 C72.5292308,13.2257851 72.6928365,12.9480992 72.9761538,12.8290909 C73.2594712,12.7100826 73.4889183,12.7378512 73.6625,12.9104132 C73.879976,13.1266116 73.87,13.4320661 73.6285817,13.8208264 C73.5427885,13.9715702 73.4988942,14.1302479 73.4988942,14.2909091 C73.4988942,14.4535537 73.5747115,14.5884298 73.7283413,14.6975207 C73.8580288,14.7847934 74.0495673,14.8700826 74.3009615,14.9573554 C74.5523558,15.0446281 74.813726,15.0922314 75.0870673,15.1041322 C75.3604087,15.1160331 75.6157933,15.0882645 75.8552163,15.0228099 C76.0966346,14.9573554 76.2821875,14.8165289 76.411875,14.6003306 C76.629351,14.2552066 76.7829808,13.8585124 76.868774,13.4142149 C76.9565625,12.9699174 76.9565625,12.5315702 76.868774,12.0971901 C76.7829808,11.6647934 76.5954327,11.2561983 76.3141106,10.8773554 C76.0287981,10.4985124 75.6477163,10.1890909 75.1688702,9.95107438 C74.5363942,9.64760331 73.828101,9.54049587 73.0419952,9.62578512 C72.2558894,9.71305785 71.5595673,9.99471074 70.9470433,10.4707438 C70.3365144,10.9487603 69.8895913,11.6152066 69.606274,12.4700826 C69.4386779,12.9798347 69.4007692,13.5669421 69.4626202,14.2175207 C69.2551202,14.6499174 69.0396394,15.0902479 68.8042067,15.5424793 C68.4450721,16.2366942 68.0520192,16.9249587 67.6270433,17.6072727 C67.2020673,18.2895868 66.7870673,18.8985124 66.3840385,19.4280992 C65.9790144,19.9596694 65.5939423,20.3821488 65.2228365,20.6955372 C64.8517308,21.0109091 64.5364904,21.1676033 64.2751202,21.1676033 C64.1434375,21.1457851 64.0456731,21.0803306 63.9818269,20.9732231 C63.9159856,20.8661157 63.8661058,20.741157 63.8341827,20.6003306 C63.8002644,20.4595041 63.7843029,20.3186777 63.7843029,20.1778512 C63.7843029,20.0370248 63.7843029,19.9120661 63.7843029,19.8049587 C63.8501442,19.2198347 63.9858173,18.581157 64.1933173,17.8869421 C64.4008173,17.1927273 64.646226,16.5163636 64.9295433,15.8538843 C65.2128606,15.1933884 65.5021635,14.5745455 65.7954567,13.9993388 C66.0907452,13.4241322 66.3361538,12.9421488 66.5316827,12.551405 C66.7950481,12.0753719 66.7950481,11.6469421 66.5316827,11.2661157 C66.2703125,10.8872727 65.9111779,10.5996694 65.4522837,10.4052893 C64.9953846,10.2109091 64.5145433,10.1395041 64.01375,10.1930579 C63.5129567,10.2466116 63.1637981,10.458843 62.9682692,10.8277686 C62.706899,11.2819835 62.4395433,11.8909091 62.1662019,12.648595 C61.9646875,13.2099174 61.7751442,13.8069421 61.5915865,14.4218182 C61.4439423,14.5666116 61.2962981,14.711405 61.1366827,14.8284298 C60.7216827,15.1319008 60.3026923,15.3441322 59.8757212,15.4631405 C59.4507452,15.5821488 59.0636779,15.6317355 58.7145192,15.6099174 C58.8442067,14.9157025 58.8661538,14.2591736 58.7803606,13.642314 C58.6925721,13.0234711 58.5229808,12.4819835 58.2735817,12.0158678 C58.0241827,11.5497521 57.694976,11.1927273 57.2919471,10.9428099 C56.8889183,10.6928926 56.4459856,10.5798347 55.9671394,10.6016529 C55.6818269,10.6234711 55.4324279,10.7266116 55.2129567,10.9110744 C54.9954808,11.0955372 54.8099279,11.317686 54.6582933,11.5775207 C54.5046635,11.8373554 54.3909375,12.1209917 54.3151202,12.4224793 C54.2373077,12.7259504 54.199399,13.0076033 54.199399,13.267438 C54.199399,13.7672727 54.2971635,14.2909091 54.4946875,14.8442975 C54.6902163,15.397686 54.9855048,15.8677686 55.3765625,16.2585124 C55.0274038,17.625124 54.5904567,18.757686 54.0677163,19.6561983 C53.544976,20.5566942 53.0421875,21.082314 52.5633413,21.2330579 C52.3219231,21.3421488 52.0825,21.3421488 51.8430769,21.2330579 C51.6036538,21.1259504 51.46,20.9414876 51.418101,20.6816529 C51.3742067,20.3127273 51.4939183,19.6244628 51.7772356,18.6168595 C52.0605529,17.6092562 52.4256731,16.454876 52.8725962,15.153719 C53.3195192,13.852562 53.8163221,12.4819835 54.3610096,11.04 C54.9056971,9.59801653 55.4304327,8.26512397 55.931226,7.03933884 C56.4340144,5.81553719 56.8689663,4.77421488 57.2400721,3.91735537 C57.6111779,3.06049587 57.8386298,2.56859504 57.9264183,2.43768595 C58.1239423,2.13421488 58.1658413,1.84066116 58.0561058,1.55900826 C57.9463702,1.27735537 57.7508413,1.03338843 57.467524,0.827107438 C57.1842067,0.620826446 56.8510096,0.454214876 56.4699279,0.323305785 C56.0888462,0.192396694 55.7217308,0.126942149 55.3725721,0.126942149 C54.935625,0.126942149 54.6323558,0.267768595 54.4567788,0.549421488 C54.1934135,0.940165289 53.8681971,1.63438017 53.4751442,2.63008264 C53.0820913,3.6277686 52.6611058,4.79801653 52.2161779,6.14280992 C51.7692548,7.48760331 51.3103606,8.92363636 50.8414904,10.4509091 C50.3726202,11.9801653 49.9416587,13.4697521 49.5486058,14.9236364 C49.4189183,15.4036364 49.2972115,15.8677686 49.1814904,16.3239669 C48.7704808,17.0519008 48.3494952,17.7639669 47.9125481,18.4522314 C47.4097596,19.2436364 46.9408894,19.8783471 46.5059375,20.3543802 C46.4400962,20.4198347 46.3543029,20.5110744 46.2445673,20.6320661 C46.1348317,20.7510744 46.0211058,20.8482645 45.9013942,20.9236364 C45.7816827,21.0009917 45.6719471,21.0327273 45.5741827,21.0208264 C45.4764183,21.0109091 45.4045913,20.917686 45.3606971,20.745124 C45.3168029,20.4198347 45.3606971,19.953719 45.4923798,19.3467769 C45.6240625,18.7398347 45.8235817,18.0456198 46.0969231,17.2661157 C46.3702644,16.4846281 46.6855048,15.6456198 47.0466346,14.745124 C47.4057692,13.8446281 47.7928365,12.9401653 48.2078365,12.0297521 C48.3395192,11.7699174 48.2617067,11.5041322 47.9783894,11.2323967 C47.6950721,10.9626446 47.351899,10.7404959 46.9488702,10.5659504 C46.5458413,10.3933884 46.1308413,10.3001653 45.7058654,10.2902479 C45.2808894,10.2803306 44.9915865,10.4152066 44.8399519,10.6968595 C44.7302163,10.871405 44.6603846,10.9884298 44.6264663,11.0558678 C44.5945433,11.1213223 44.5446635,11.2284298 44.4808173,11.381157 C44.2832933,10.8833058 43.980024,10.5203306 43.565024,10.2922314 C43.150024,10.0641322 42.6811538,9.95107438 42.1584135,9.95107438 C41.8092548,9.95107438 41.448125,10.0105785 41.0790144,10.1295868 C40.7079087,10.248595 40.348774,10.4390083 39.9996154,10.698843 C39.5846154,11.0241322 39.1815865,11.5279339 38.7885337,12.2122314 C38.3954808,12.8945455 38.0423317,13.6581818 37.7250962,14.505124 C37.5395433,14.9990083 37.3819231,15.5087603 37.2382692,16.0264463 C37.0666827,16.3120661 36.9070673,16.5877686 36.7275,16.8793388 C36.3125,17.5517355 35.8994952,18.1745455 35.4844952,18.7497521 C35.0694952,19.3249587 34.6764423,19.818843 34.3073317,20.2294215 C33.936226,20.64 33.6090144,20.9117355 33.3256971,21.0426446 C33.1720673,21.1299174 33.0743029,21.0327273 33.0304087,20.7510744 C32.9865144,20.2968595 33.09625,19.574876 33.3576202,18.5890909 C33.6189904,17.6033058 33.9581731,16.4866116 34.3711779,15.2390083 C34.7841827,13.9933884 35.2550481,12.686281 35.7777885,11.3196694 C36.3005288,9.95504132 36.8132933,8.66975207 37.3160817,7.46578512 C37.816875,6.26181818 38.2817548,5.20066116 38.7067308,4.27834711 C39.1317067,3.35603306 39.4529327,2.72330579 39.6724038,2.37619835 C39.8679327,2.07272727 39.901851,1.78710744 39.7701683,1.5153719 C39.6404808,1.24363636 39.4210096,1.01157025 39.1157452,0.815206612 C38.8104808,0.620826446 38.4553365,0.468099174 38.0523077,0.360991736 C37.6492788,0.251900826 37.2841587,0.198347107 36.9569471,0.198347107 C36.8033173,0.198347107 36.6456971,0.230082645 36.4820913,0.29553719 C36.3184856,0.360991736 36.1828125,0.470082645 36.0730769,0.620826446 C35.9194471,0.837024793 35.6979808,1.28727273 35.4026923,1.96958678 C35.109399,2.65190083 34.7821875,3.48099174 34.4210577,4.4568595 C34.0619231,5.43272727 33.6808413,6.52165289 33.2758173,7.72561983 C32.8727885,8.92760331 32.4956971,10.1494215 32.1465385,11.3831405 C31.9290625,10.8852893 31.6118269,10.522314 31.1968269,10.2942149 C30.7838221,10.0661157 30.3149519,9.95305785 29.7902163,9.95305785 C29.4410577,9.95305785 29.0859135,10.012562 28.7267788,10.1315702 C28.3676442,10.2505785 28.0125,10.4409917 27.6633413,10.7008264 C27.2503365,11.0261157 26.8393269,11.5299174 26.4362981,12.2142149 C26.0332692,12.8965289 25.6721394,13.6601653 25.356899,14.5071074 C25.0955288,15.2052893 24.8840385,15.9312397 24.7064663,16.6750413 C24.526899,16.9884298 24.3413462,17.3018182 24.1458173,17.6132231 C23.7208413,18.2955372 23.3058413,18.9044628 22.9028125,19.4340496 C22.4997837,19.9656198 22.1127163,20.3880992 21.7416106,20.7014876 C21.3705048,21.0168595 21.0552644,21.1735537 20.791899,21.1735537 C20.6622115,21.1517355 20.5624519,21.086281 20.4986058,20.9791736 C20.4327644,20.8720661 20.3848798,20.7471074 20.3509615,20.606281 C20.3190385,20.4654545 20.3010817,20.3246281 20.3010817,20.1838017 C20.3010817,20.0429752 20.3010817,19.9180165 20.3010817,19.8109091 C20.3669231,19.2257851 20.5025962,18.5871074 20.7100962,17.8928926 C20.915601,17.1986777 21.1630048,16.522314 21.4463221,15.8598347 C21.7296394,15.1993388 22.0189423,14.5804959 22.3122356,14.0052893 C22.6055288,13.4300826 22.8529327,12.9480992 23.0484615,12.5573554 C23.3098317,12.0813223 23.3098317,11.6528926 23.0484615,11.2720661 C22.7870913,10.8932231 22.4259615,10.6056198 21.9690625,10.4112397 C21.5101683,10.2168595 21.0313221,10.1454545 20.5285337,10.1990083 C20.0257452,10.252562 19.6785817,10.4647934 19.4810577,10.833719 C19.2196875,11.2879339 18.9523317,11.8968595 18.6789904,12.6545455 C18.405649,13.4142149 18.1502644,14.2214876 17.9108413,15.0783471 C17.699351,15.8340496 17.5277644,16.5996694 17.3841106,17.3712397 C17.3142788,17.4882645 17.2444471,17.6171901 17.1746154,17.7302479 C16.661851,18.5553719 16.1650481,19.2595041 15.6862019,19.8446281 C15.2073558,20.4297521 14.7923558,20.8304132 14.4431971,21.0466116 C14.3334615,21.1120661 14.2197356,21.1338843 14.100024,21.1120661 C13.9803125,21.0902479 13.8985096,21.014876 13.8546154,20.8839669 C13.7249279,20.4515702 13.756851,19.7236364 13.9523798,18.7041322 C14.1479087,17.6846281 14.4372115,16.5302479 14.8182933,15.2409917 C15.199375,13.9517355 15.6403125,12.6069421 16.143101,11.208595 C16.6438942,9.81024793 17.1347115,8.49917355 17.6155529,7.27338843 C18.0963942,6.04958678 18.5253606,4.99636364 18.9084375,4.11768595 C19.2895192,3.23900826 19.5688462,2.68165289 19.7424279,2.44363636 C19.9379567,2.14016529 19.981851,1.84661157 19.8721154,1.56495868 C19.7623798,1.28330579 19.566851,1.03933884 19.2835337,0.833057851 C19.0002163,0.62677686 18.6670192,0.460165289 18.2859375,0.329256198 C17.9048558,0.198347107 17.5397356,0.132892562 17.1905769,0.132892562 C16.7536298,0.132892562 16.4483654,0.273719008 16.2747837,0.555371901 C16.0573077,0.880661157 15.7719952,1.47173554 15.4248317,2.32661157 C15.0756731,3.18347107 14.6925962,4.19702479 14.2795913,5.36727273 C13.8645913,6.53752066 13.4515865,7.81289256 13.0365865,9.18942149 C12.6215865,10.5659504 12.2504808,11.932562 11.9232692,13.2872727 C11.7536779,13.9894215 11.6040385,14.6717355 11.4683654,15.3361983 C11.4184856,15.3798347 11.3686058,15.4254545 11.318726,15.465124 C10.9156971,15.7804959 10.5445913,15.9907438 10.2074038,16.0998347 C9.87021635,16.2089256 9.61283654,16.252562 9.43725962,16.2307438 C9.67668269,14.7986777 9.65473558,13.7057851 9.37141827,12.9461157 C9.08810096,12.1864463 8.69504808,11.7004959 8.19425481,11.482314 C8.06257212,11.0915702 7.88899038,10.7821488 7.66951923,10.5560331 C7.45204327,10.3279339 7.23257212,10.1553719 7.01509615,10.0343802 C6.79762019,9.9153719 6.58413462,9.84595041 6.37663462,9.82413223 C6.16913462,9.80231405 6.00153846,9.79239669 5.86985577,9.79239669 C5.08574519,9.79239669 4.34951923,10.08 3.66317308,10.6532231 C2.97483173,11.2284298 2.37028846,11.9642975 1.84754808,12.8647934 C1.3228125,13.7652893 0.913798077,14.7510744 0.620504808,15.8241322 C0.327211538,16.8971901 0.177572115,17.932562 0.177572115,18.9302479 C0.177572115,19.9497521 0.347163462,20.8601653 0.684350962,21.6614876 C1.02353365,22.4647934 1.55225962,23.0499174 2.27052885,23.418843 C2.81521635,23.6568595 3.32798077,23.7758678 3.80882212,23.7758678 C5.05182692,23.7758678 6.11526442,23.2561983 6.99913462,22.214876 C7.88300481,21.1735537 8.54141827,19.8406612 8.97836538,18.2142149 C9.56894231,18.2578512 10.1714904,18.101157 10.7939904,17.7421488 C10.8897596,17.6866116 10.9815385,17.625124 11.0753125,17.5656198 C10.9256731,18.5930579 10.8558413,19.4876033 10.8757933,20.231405 C10.8977404,20.8601653 10.9955048,21.3857851 11.1690865,21.8082645 C11.3426683,22.2307438 11.5661298,22.5679339 11.8394712,22.8158678 C12.1128125,23.0657851 12.4280529,23.2442975 12.7871875,23.3533884 C13.1483173,23.4624793 13.5234135,23.5160331 13.9164663,23.5160331 C14.483101,23.5160331 15.0397596,23.2621488 15.5844471,22.7523967 C16.123149,22.248595 16.641899,21.6158678 17.1387019,20.8581818 C17.1626442,21.0604959 17.1945673,21.258843 17.2384615,21.4452893 C17.336226,21.8638017 17.4998317,22.2287603 17.7292788,22.5381818 C17.958726,22.8476033 18.26,23.0895868 18.6291106,23.2601653 C19.0002163,23.4307438 19.4591106,23.5160331 20.0037981,23.5160331 C20.6582212,23.5160331 21.3006731,23.2760331 21.933149,22.7940496 C22.565625,22.3140496 23.1601923,21.701157 23.716851,20.9573554 C23.924351,20.6816529 24.1198798,20.3801653 24.3154087,20.0806612 C24.3772596,21.153719 24.6765385,21.9887603 25.2371875,22.5560331 C25.8696635,23.1966942 26.653774,23.5160331 27.5935096,23.5160331 C27.9426683,23.4942149 28.2638942,23.4128926 28.5591827,23.2720661 C28.852476,23.1312397 29.1198317,22.9586777 29.36125,22.7523967 C29.6006731,22.5461157 29.8201442,22.32 30.0156731,22.0700826 C30.2112019,21.8201653 30.3748077,21.5781818 30.5064904,21.3381818 C30.658125,21.9887603 30.9474279,22.5084298 31.374399,22.8991736 C31.799375,23.2899174 32.2842067,23.4842975 32.8308894,23.4842975 C33.3536298,23.4842975 33.8943269,23.2343802 34.4509856,22.7365289 C35.005649,22.2386777 35.5523317,21.6039669 36.0870433,20.8343802 C36.2865625,20.5467769 36.4800962,20.2393388 36.675625,19.9338843 C36.717524,21.0803306 37.0207933,21.9629752 37.6073798,22.5580165 C38.2398558,23.1986777 39.0239663,23.5180165 39.9617067,23.5180165 C40.3108654,23.4961983 40.6320913,23.414876 40.9273798,23.2740496 C41.2226683,23.1332231 41.490024,22.9606612 41.7294471,22.7543802 C41.9688702,22.5480992 42.1883413,22.3219835 42.3838702,22.0720661 C42.579399,21.8221488 42.7430048,21.5801653 42.8746875,21.3401653 C43.0063702,21.9907438 43.2837019,22.5104132 43.7086779,22.901157 C44.1336538,23.2919008 44.6304567,23.486281 45.1970913,23.486281 C45.7198317,23.486281 46.2505529,23.2363636 46.7832692,22.7385124 C47.2341827,22.3180165 47.6771154,21.7943802 48.1120673,21.1795041 C48.0701683,21.4353719 48.0342548,21.6773554 48.0103125,21.8915702 C47.9664183,22.454876 48.130024,22.867438 48.5011298,23.1272727 C48.8722356,23.3871074 49.2752644,23.5180165 49.7122115,23.5180165 C49.9296875,23.5180165 50.1371875,23.4585124 50.3347115,23.3395041 C50.5302404,23.2204959 50.7038221,22.9765289 50.8574519,22.6076033 C51.0310337,22.9110744 51.304375,23.1391736 51.6754808,23.2899174 C52.0465865,23.4426446 52.4156971,23.5180165 52.7887981,23.5180165 C53.3993269,23.5180165 53.9819231,23.3295868 54.5385817,22.9487603 C55.0932452,22.5699174 55.6119952,22.0819835 56.0928365,21.4849587 C56.5716827,20.8879339 56.9986538,20.227438 57.3677644,19.5014876 C57.7388702,18.7755372 58.0441346,18.0654545 58.2835577,17.3712397 C58.7424519,17.414876 59.2651923,17.3276033 59.853774,17.111405 C60.2468269,16.9666116 60.6398798,16.7702479 61.0329327,16.5282645 C60.9491346,16.9110744 60.8693269,17.2938843 60.8034856,17.6806612 C60.6498558,18.5593388 60.5740385,19.3566942 60.5740385,20.0707438 C60.5740385,20.5705785 60.6219231,21.0287603 60.7196875,21.4472727 C60.8174519,21.8657851 60.9810577,22.2307438 61.2105048,22.5401653 C61.4399519,22.8495868 61.7392308,23.0915702 62.1103365,23.2621488 C62.4814423,23.4327273 62.9383413,23.5180165 63.485024,23.5180165 C64.1394471,23.5180165 64.781899,23.2780165 65.414375,22.7960331 C66.046851,22.3160331 66.6414183,21.7031405 67.1960817,20.9593388 C67.7527404,20.2155372 68.2694952,19.3884298 68.7503365,18.4780165 C69.1693269,17.6806612 69.5444231,16.9190083 69.8895913,16.181157 C69.9215144,16.2763636 69.9534375,16.3795041 69.9933413,16.4945455 C70.125024,16.8852893 70.2666827,17.3196694 70.4203125,17.7957025 C70.5719471,18.273719 70.7096154,18.7616529 70.8293269,19.2595041 C70.9490385,19.7593388 71.0188702,20.2195041 71.0428125,20.6419835 C71.0647596,21.0644628 71.0088942,21.4115702 70.8792067,21.6833058 C70.7495192,21.9550413 70.508101,22.0899174 70.1589423,22.0899174 C69.9195192,22.0899174 69.7758654,21.9709091 69.7339663,21.7328926 C69.668125,21.3421488 69.5204808,21.0922314 69.2930288,20.985124 C69.0635817,20.8780165 68.8241587,20.8661157 68.5727644,20.9533884 C68.3233654,21.0406612 68.0999038,21.2092562 67.9023798,21.4571901 C67.7048558,21.7071074 67.6190625,22.0046281 67.6410096,22.3517355 C67.6629567,22.8495868 67.9023798,23.246281 68.361274,23.5378512 C68.8201683,23.8294215 69.6022837,23.9642975 70.715601,23.9444628 C71.7411298,23.9226446 72.8045673,23.6191736 73.9039183,23.0340496 C75.0052644,22.4489256 76.0726923,21.6833058 77.1101923,20.741157 C78.1456971,19.7970248 79.0894231,18.7358678 79.939375,17.553719 C80.7893269,16.3715702 81.4776683,15.1735537 82.0004087,13.9596694 C82.523149,12.7457851 82.8284135,11.5695868 82.9162019,10.4310744 C83,9.27867769 82.7925,8.28694215 82.2917067,7.44 Z M5.90576923,18.9044628 C5.75213942,19.4578512 5.55661058,19.9775207 5.3171875,20.4654545 C5.07576923,20.9533884 4.81439904,21.36 4.53108173,21.6852893 C4.24776442,22.0105785 3.95247596,22.1732231 3.64721154,22.1732231 C3.25415865,22.1732231 2.98680288,21.9887603 2.84514423,21.6198347 C2.70348558,21.2509091 2.64961538,20.7907438 2.68153846,20.2373554 C2.71346154,19.6839669 2.81721154,19.0710744 2.99278846,18.4006612 C3.16637019,17.7282645 3.37985577,17.0955372 3.63125,16.4985124 C3.88064904,15.9014876 4.15997596,15.3877686 4.46524038,14.9533884 C4.77050481,14.5190083 5.07576923,14.2492562 5.38103365,14.1401653 C5.27129808,14.3781818 5.22341346,14.6618182 5.23338942,14.985124 C5.24536058,15.3104132 5.28725962,15.6317355 5.36507212,15.945124 C5.44088942,16.2604959 5.550625,16.5461157 5.69228365,16.8079339 C5.83394231,17.0677686 6.00353365,17.2641322 6.1990625,17.3930579 C6.15716346,17.8472727 6.05939904,18.3510744 5.90576923,18.9044628 Z M30.9334615,14.9196694 C30.8456731,15.4393388 30.719976,15.9986777 30.5563702,16.593719 C30.3927644,17.1907438 30.201226,17.7917355 29.98375,18.3986777 C29.766274,19.0056198 29.5308413,19.5590083 29.2794471,20.0568595 C29.0280529,20.5566942 28.7606971,20.9613223 28.4773798,21.2766942 C28.1940625,21.5920661 27.90875,21.7487603 27.6274279,21.7487603 C27.4099519,21.7487603 27.2682933,21.6238017 27.2024519,21.3738843 C27.1366106,21.1239669 27.1086779,20.8323967 27.120649,20.4952066 C27.130625,20.16 27.1705288,19.818843 27.234375,19.4717355 C27.3002163,19.1246281 27.3540865,18.8528926 27.3979808,18.6585124 C27.5496154,18.0079339 27.7571154,17.313719 28.0204808,16.5778512 C28.281851,15.84 28.5611779,15.1676033 28.8544712,14.5606612 C29.1477644,13.953719 29.455024,13.4499174 29.7702644,13.0492562 C30.0855048,12.648595 30.3768029,12.446281 30.6381731,12.446281 C30.7259615,12.446281 30.7957933,12.4998347 30.8496635,12.6089256 C30.9035337,12.7180165 30.9474279,12.8370248 30.9813462,12.9679339 C31.0132692,13.0968595 31.0352163,13.233719 31.0471875,13.3745455 C31.0571635,13.5153719 31.063149,13.6185124 31.063149,13.6839669 C31.063149,13.987438 31.0192548,14.4 30.9334615,14.9196694 Z M43.3635096,14.9196694 C43.2757212,15.4393388 43.1520192,15.9986777 42.9884135,16.593719 C42.8248077,17.1907438 42.6332692,17.7917355 42.4157933,18.3986777 C42.1983173,19.0056198 41.9628846,19.5590083 41.7134856,20.0568595 C41.4620913,20.5566942 41.1947356,20.9613223 40.9114183,21.2766942 C40.628101,21.5920661 40.3447837,21.7487603 40.0614663,21.7487603 C39.8439904,21.7487603 39.7023317,21.6238017 39.6364904,21.3738843 C39.570649,21.1239669 39.5427163,20.8323967 39.5546875,20.4952066 C39.5646635,20.16 39.6045673,19.818843 39.6684135,19.4717355 C39.7342548,19.1246281 39.788125,18.8528926 39.8320192,18.6585124 C39.9836538,18.0079339 40.1911538,17.313719 40.452524,16.5778512 C40.7138942,15.84 40.9932212,15.1676033 41.2865144,14.5606612 C41.5818029,13.953719 41.8870673,13.4499174 42.2043029,13.0492562 C42.5195433,12.648595 42.8088462,12.446281 43.0702163,12.446281 C43.1560096,12.446281 43.2278365,12.4998347 43.2837019,12.6089256 C43.3375721,12.7180165 43.3814663,12.8370248 43.4133894,12.9679339 C43.4453125,13.0968595 43.4672596,13.233719 43.4792308,13.3745455 C43.4892067,13.5153719 43.4951923,13.6185124 43.4951923,13.6839669 C43.4931971,13.987438 43.4493029,14.4 43.3635096,14.9196694 Z" id="Shape"></path></g></g></g></g></svg>